<svg width="91" height="91" viewBox="0 0 91 91" fill="none" xmlns="http://www.w3.org/2000/svg">
<g clip-path="url(#clip0_236_211)">
<path d="M66.2962 63.9554C65.8013 63.6657 65.336 63.3281 64.9058 62.9469C64.4743 62.5489 64.1453 62.0509 63.9485 61.4967C63.9274 61.4349 63.9274 61.4166 63.8867 61.3955C63.8051 61.1901 63.7419 60.9777 63.6955 60.7611C63.4368 59.3559 63.3286 57.9269 63.3736 56.4978V53.9589C63.3946 50.8222 63.3946 47.649 63.3736 44.5053V39.1884C63.5296 36.5891 62.8169 34.0108 61.3493 31.8602C60.0278 29.6772 57.6282 28.3803 55.0795 28.4745C51.1982 28.4126 48.8548 30.3003 45.8816 31.9108C44.8061 32.5184 43.6 32.8532 42.3657 32.8884C41.9032 32.8884 42.4459 35.4272 42.4669 35.3977C46.6365 34.0277 50.529 34.9842 51.6143 37.7453C51.7858 38.4261 51.894 39.1209 51.9362 39.8214C51.9362 43.1578 51.9573 46.4829 51.9573 49.8095V57.2883C51.9728 58.4557 51.8434 59.619 51.5749 60.7555C51.3823 61.6008 50.9311 62.3646 50.2844 62.9427C49.8051 63.3183 49.3046 63.6657 48.7845 63.9808C48.5792 64.1256 48.4583 64.3633 48.4626 64.6151C48.4569 65.016 48.7789 65.3451 49.1795 65.3494C49.1851 65.3494 49.1921 65.3494 49.1978 65.3494H65.9433C66.344 65.355 66.6729 65.0329 66.6771 64.632C66.6771 64.6264 66.6771 64.6193 66.6771 64.6137C66.6603 64.3408 66.5098 64.0947 66.2737 63.9583L66.2948 63.9554H66.2962Z" fill="#242424"/>
<path d="M42.332 32.8606C41.8779 32.8916 41.421 32.8156 41.0021 32.6384C39.8283 32.0054 38.7585 31.1967 37.8293 30.2388C34.2305 26.6407 35.1499 24.5928 33.7399 24.5928C32.3299 24.5928 33.2451 26.6393 29.6491 30.2486C26.0532 33.8579 23.9979 32.9296 23.9979 34.3404C23.9979 35.7512 26.0433 34.8355 29.6491 38.4335C30.9115 39.6403 31.9068 41.1004 32.5703 42.7179C32.8711 43.5084 33.0117 44.3524 32.9836 45.1977C32.9878 46.6732 32.5928 48.122 31.8407 49.3907C29.7658 53.1913 27.9327 56.9806 27.9327 59.7122C27.9327 62.4438 30.5319 66.1023 33.7455 66.1023C37.1095 65.9349 39.7074 63.0795 39.557 59.7122C39.557 56.1845 37.7323 53.1815 35.649 49.3907C34.9882 48.0826 34.6087 46.6507 34.5314 45.1879C34.5524 44.3524 34.6916 43.5253 34.9447 42.7292C36.3814 39.4181 39.0579 36.8019 42.3981 35.4417C42.4951 35.3995 42.5949 35.3615 42.6961 35.3306C43.2443 35.1787 43.6309 34.6906 43.6534 34.1223C43.5986 33.4289 43.0377 32.8845 42.3446 32.8522L42.3306 32.862L42.332 32.8606Z" fill="#242424"/>
<path d="M45.3445 90.7032C20.3148 90.7173 0.0140654 70.4274 7.7369e-06 45.3833C-0.00702112 33.3388 4.77541 21.788 13.2916 13.2754C31.0099 -4.43767 59.7242 -4.42501 77.427 13.3049C81.5488 17.4318 84.8355 22.3168 87.1086 27.6886C96.8618 50.7508 86.0838 77.359 63.0348 87.1179C57.4384 89.4879 51.4217 90.7074 45.3445 90.7032ZM45.3445 3.57982C22.2843 3.5967 3.6044 22.3154 3.62127 45.3889C3.63392 62.1567 13.6655 77.2929 29.0981 83.8307C50.3393 92.8089 74.8348 82.8573 83.8078 61.6039C92.7809 40.3506 82.835 15.841 61.5938 6.86277C56.4529 4.68539 50.9269 3.56857 45.346 3.57701" fill="#242424"/>
</g>
<defs>
<clipPath id="clip0_236_211">
<rect width="90.7031" height="90.7031" fill="white"/>
</clipPath>
</defs>
</svg>
